<svg width="699" height="651" viewBox="0 0 699 651" fill="none" xmlns="http://www.w3.org/2000/svg">
<g id="Group 22">
<path id="Path 3" fill-rule="evenodd" clip-rule="evenodd" d="M357.361 617.675C433.064 641.368 510.904 680.887 590.596 608.705C670.289 536.523 720.39 473.291 688.036 391.478C655.682 309.664 523.614 360.623 485.242 287.501C446.869 214.379 531.183 148.016 494.833 82.9376C458.484 17.8597 430.534 -23.8494 313.718 17.5292C196.902 58.9078 207.673 164.193 118.84 225.847C30.0071 287.501 -66.1041 379.8 65.7937 544.494C197.691 709.188 281.659 593.981 357.361 617.675Z" stroke="#E4E4E4"/>
<path id="Path 3 Copy" fill-rule="evenodd" clip-rule="evenodd" d="M347.895 579.751C409.478 598.991 472.8 631.081 537.629 572.468C602.457 513.854 643.214 462.509 616.895 396.075C590.575 329.641 483.14 371.02 451.924 311.644C420.708 252.268 489.296 198.379 459.726 145.535C430.157 92.6904 407.42 58.8219 312.392 92.4221C217.364 126.022 226.125 211.516 153.861 261.58C81.5969 311.644 3.41175 386.592 110.709 520.327C218.006 654.062 286.312 560.511 347.895 579.751Z" stroke="#E4E4E4"/>
<path id="Path 3 Copy 2" fill-rule="evenodd" clip-rule="evenodd" d="M330.188 554.583C380.15 570.281 431.522 596.465 484.117 548.64C536.711 500.815 569.777 458.92 548.424 404.714C527.071 350.508 439.91 384.271 414.586 335.824C389.261 287.376 444.905 243.406 420.916 200.288C396.926 157.171 378.48 129.536 301.385 156.952C224.29 184.367 231.398 254.125 172.771 294.974C114.144 335.824 50.7132 396.977 137.762 506.096C224.811 615.215 280.227 538.884 330.188 554.583Z" stroke="#E4E4E4"/>
<path id="Path 3 Copy 5" fill-rule="evenodd" clip-rule="evenodd" d="M311.684 523.816C351.979 536.412 393.412 557.419 435.831 519.048C478.25 480.677 504.918 447.064 487.696 403.573C470.475 360.082 400.178 387.171 379.753 348.3C359.328 309.43 404.206 274.152 384.858 239.557C365.51 204.962 350.633 182.79 288.454 204.787C226.275 226.783 232.008 282.752 184.724 315.526C137.44 348.3 86.2818 397.365 156.488 484.914C226.695 572.464 271.389 511.221 311.684 523.816Z" stroke="#E4E4E4"/>
<path id="Path 3 Copy 4" fill-rule="evenodd" clip-rule="evenodd" d="M306.917 503.954C339.827 514.249 373.666 531.421 408.31 500.057C442.953 468.692 464.734 441.217 450.668 405.668C436.603 370.119 379.191 392.261 362.51 360.489C345.828 328.717 382.481 299.88 366.679 271.603C350.877 243.326 338.727 225.203 287.945 243.182C237.163 261.162 241.845 306.91 203.227 333.699C164.61 360.489 122.829 400.594 180.167 472.156C237.506 543.718 274.008 493.659 306.917 503.954Z" stroke="#E4E4E4"/>
<path id="Path 3 Copy 3" fill-rule="evenodd" clip-rule="evenodd" d="M297.775 489.594C324.493 497.954 351.966 511.899 380.093 486.429C408.22 460.959 425.903 438.648 414.483 409.78C403.064 380.912 356.452 398.893 342.909 373.092C329.365 347.291 359.123 323.875 346.294 300.912C333.465 277.949 323.6 263.232 282.371 277.832C241.142 292.433 244.943 329.583 213.591 351.337C182.238 373.092 148.316 405.66 194.868 463.772C241.421 521.884 271.056 481.234 297.775 489.594Z" stroke="#E4E4E4"/>
</g>
</svg>
